<mxfile host="app.diagrams.net" modified="2024-04-28T17:21:18.338Z" agent="Mozilla/5.0 (Windows NT 10.0; Win64; x64) AppleWebKit/537.36 (KHTML, like Gecko) Chrome/124.0.0.0 Safari/537.36" etag="Oh3mOij6_TQSnYRbETqn" version="24.3.1" type="device">
  <diagram name="PÃ¡gina-1" id="kSbHAOheO05VAJ7IZOM8">
    <mxGraphModel dx="988" dy="523" grid="1" gridSize="10" guides="1" tooltips="1" connect="1" arrows="1" fold="1" page="1" pageScale="1" pageWidth="1169" pageHeight="827" math="0" shadow="0">
      <root>
        <mxCell id="0" />
        <mxCell id="1" parent="0" />
        <mxCell id="QPQLbKnhLEbj0gce8Fij-38" value="" style="rounded=0;whiteSpace=wrap;html=1;" vertex="1" parent="1">
          <mxGeometry x="220" y="150" width="710" height="390" as="geometry" />
        </mxCell>
        <mxCell id="QPQLbKnhLEbj0gce8Fij-1" value="R" style="rounded=0;whiteSpace=wrap;html=1;fillColor=#ffe6cc;strokeColor=#d79b00;" vertex="1" parent="1">
          <mxGeometry x="382" y="200" width="90" height="70" as="geometry" />
        </mxCell>
        <mxCell id="QPQLbKnhLEbj0gce8Fij-2" value="" style="rounded=0;whiteSpace=wrap;html=1;fillColor=#e1d5e7;strokeColor=#9673a6;" vertex="1" parent="1">
          <mxGeometry x="310" y="390" width="240" height="120" as="geometry" />
        </mxCell>
        <mxCell id="QPQLbKnhLEbj0gce8Fij-3" value="" style="rounded=0;whiteSpace=wrap;html=1;fillColor=#d5e8d4;strokeColor=#82b366;" vertex="1" parent="1">
          <mxGeometry x="664" y="290" width="190" height="110" as="geometry" />
        </mxCell>
        <mxCell id="QPQLbKnhLEbj0gce8Fij-4" value="" style="endArrow=classic;html=1;rounded=0;exitX=1;exitY=0.5;exitDx=0;exitDy=0;entryX=-0.005;entryY=0.271;entryDx=0;entryDy=0;entryPerimeter=0;" edge="1" parent="1" source="QPQLbKnhLEbj0gce8Fij-1" target="QPQLbKnhLEbj0gce8Fij-3">
          <mxGeometry width="50" height="50" relative="1" as="geometry">
            <mxPoint x="560" y="240" as="sourcePoint" />
            <mxPoint x="620" y="340" as="targetPoint" />
            <Array as="points">
              <mxPoint x="600" y="234" />
              <mxPoint x="600" y="320" />
            </Array>
          </mxGeometry>
        </mxCell>
        <mxCell id="QPQLbKnhLEbj0gce8Fij-7" value="" style="endArrow=classic;html=1;rounded=0;exitX=1;exitY=0.5;exitDx=0;exitDy=0;entryX=-0.005;entryY=0.633;entryDx=0;entryDy=0;entryPerimeter=0;" edge="1" parent="1" source="QPQLbKnhLEbj0gce8Fij-2" target="QPQLbKnhLEbj0gce8Fij-3">
          <mxGeometry width="50" height="50" relative="1" as="geometry">
            <mxPoint x="510" y="451" as="sourcePoint" />
            <mxPoint x="700" y="400" as="targetPoint" />
            <Array as="points">
              <mxPoint x="600" y="450" />
              <mxPoint x="600" y="360" />
            </Array>
          </mxGeometry>
        </mxCell>
        <mxCell id="QPQLbKnhLEbj0gce8Fij-8" value="Real Image" style="text;html=1;align=center;verticalAlign=middle;resizable=0;points=[];autosize=1;strokeColor=none;fillColor=none;" vertex="1" parent="1">
          <mxGeometry x="385" y="162" width="80" height="30" as="geometry" />
        </mxCell>
        <mxCell id="QPQLbKnhLEbj0gce8Fij-9" value="Generador" style="text;html=1;align=center;verticalAlign=middle;resizable=0;points=[];autosize=1;strokeColor=none;fillColor=none;" vertex="1" parent="1">
          <mxGeometry x="395" y="361" width="80" height="30" as="geometry" />
        </mxCell>
        <mxCell id="QPQLbKnhLEbj0gce8Fij-10" value="Discriminador" style="text;html=1;align=center;verticalAlign=middle;resizable=0;points=[];autosize=1;strokeColor=none;fillColor=none;" vertex="1" parent="1">
          <mxGeometry x="709" y="260" width="100" height="30" as="geometry" />
        </mxCell>
        <mxCell id="QPQLbKnhLEbj0gce8Fij-11" value="" style="endArrow=classic;html=1;rounded=0;exitX=1;exitY=0.5;exitDx=0;exitDy=0;" edge="1" parent="1" source="QPQLbKnhLEbj0gce8Fij-3">
          <mxGeometry width="50" height="50" relative="1" as="geometry">
            <mxPoint x="864" y="340" as="sourcePoint" />
            <mxPoint x="884" y="320" as="targetPoint" />
          </mxGeometry>
        </mxCell>
        <mxCell id="QPQLbKnhLEbj0gce8Fij-12" value="Real" style="text;html=1;align=center;verticalAlign=middle;resizable=0;points=[];autosize=1;strokeColor=none;fillColor=none;" vertex="1" parent="1">
          <mxGeometry x="873" y="298" width="50" height="30" as="geometry" />
        </mxCell>
        <mxCell id="QPQLbKnhLEbj0gce8Fij-13" value="" style="endArrow=classic;html=1;rounded=0;exitX=1;exitY=0.5;exitDx=0;exitDy=0;" edge="1" parent="1" source="QPQLbKnhLEbj0gce8Fij-3">
          <mxGeometry width="50" height="50" relative="1" as="geometry">
            <mxPoint x="864" y="355" as="sourcePoint" />
            <mxPoint x="884" y="370" as="targetPoint" />
          </mxGeometry>
        </mxCell>
        <mxCell id="QPQLbKnhLEbj0gce8Fij-14" value="Falso" style="text;html=1;align=center;verticalAlign=middle;resizable=0;points=[];autosize=1;strokeColor=none;fillColor=none;" vertex="1" parent="1">
          <mxGeometry x="876" y="361" width="50" height="30" as="geometry" />
        </mxCell>
        <mxCell id="QPQLbKnhLEbj0gce8Fij-15" value="" style="endArrow=classic;html=1;rounded=0;exitX=0;exitY=0.5;exitDx=0;exitDy=0;entryX=0;entryY=0.5;entryDx=0;entryDy=0;" edge="1" parent="1" source="QPQLbKnhLEbj0gce8Fij-1" target="QPQLbKnhLEbj0gce8Fij-2">
          <mxGeometry width="50" height="50" relative="1" as="geometry">
            <mxPoint x="230" y="340" as="sourcePoint" />
            <mxPoint x="280" y="470" as="targetPoint" />
            <Array as="points">
              <mxPoint x="280" y="235" />
              <mxPoint x="280" y="450" />
            </Array>
          </mxGeometry>
        </mxCell>
        <mxCell id="QPQLbKnhLEbj0gce8Fij-33" value="" style="edgeStyle=orthogonalEdgeStyle;rounded=0;orthogonalLoop=1;jettySize=auto;html=1;" edge="1" parent="1" source="QPQLbKnhLEbj0gce8Fij-16" target="QPQLbKnhLEbj0gce8Fij-27">
          <mxGeometry relative="1" as="geometry" />
        </mxCell>
        <mxCell id="QPQLbKnhLEbj0gce8Fij-16" value="R" style="rounded=0;whiteSpace=wrap;html=1;fillColor=#ffe6cc;strokeColor=#d79b00;" vertex="1" parent="1">
          <mxGeometry x="335" y="430" width="40" height="40" as="geometry" />
        </mxCell>
        <mxCell id="QPQLbKnhLEbj0gce8Fij-17" value="" style="endArrow=classic;html=1;rounded=0;exitX=0;exitY=0.5;exitDx=0;exitDy=0;entryX=0;entryY=0.5;entryDx=0;entryDy=0;" edge="1" parent="1" source="QPQLbKnhLEbj0gce8Fij-2" target="QPQLbKnhLEbj0gce8Fij-16">
          <mxGeometry width="50" height="50" relative="1" as="geometry">
            <mxPoint x="340" y="460" as="sourcePoint" />
            <mxPoint x="390" y="410" as="targetPoint" />
          </mxGeometry>
        </mxCell>
        <mxCell id="QPQLbKnhLEbj0gce8Fij-18" value="R" style="rounded=0;whiteSpace=wrap;html=1;fillColor=#ffe6cc;strokeColor=#d79b00;" vertex="1" parent="1">
          <mxGeometry x="683" y="303" width="30" height="30" as="geometry" />
        </mxCell>
        <mxCell id="QPQLbKnhLEbj0gce8Fij-19" value="F" style="rounded=0;whiteSpace=wrap;html=1;fillColor=#fff2cc;strokeColor=#d6b656;" vertex="1" parent="1">
          <mxGeometry x="683" y="347" width="30" height="30" as="geometry" />
        </mxCell>
        <mxCell id="QPQLbKnhLEbj0gce8Fij-20" value="D" style="rounded=0;whiteSpace=wrap;html=1;" vertex="1" parent="1">
          <mxGeometry x="749" y="320" width="60" height="50" as="geometry" />
        </mxCell>
        <mxCell id="QPQLbKnhLEbj0gce8Fij-21" value="" style="endArrow=classic;html=1;rounded=0;exitX=0;exitY=0.274;exitDx=0;exitDy=0;exitPerimeter=0;entryX=0;entryY=0.5;entryDx=0;entryDy=0;" edge="1" parent="1" source="QPQLbKnhLEbj0gce8Fij-3" target="QPQLbKnhLEbj0gce8Fij-18">
          <mxGeometry width="50" height="50" relative="1" as="geometry">
            <mxPoint x="624" y="300" as="sourcePoint" />
            <mxPoint x="674" y="250" as="targetPoint" />
          </mxGeometry>
        </mxCell>
        <mxCell id="QPQLbKnhLEbj0gce8Fij-22" value="" style="endArrow=classic;html=1;rounded=0;exitX=0.003;exitY=0.631;exitDx=0;exitDy=0;exitPerimeter=0;entryX=0;entryY=0.5;entryDx=0;entryDy=0;" edge="1" parent="1" source="QPQLbKnhLEbj0gce8Fij-3" target="QPQLbKnhLEbj0gce8Fij-19">
          <mxGeometry width="50" height="50" relative="1" as="geometry">
            <mxPoint x="634" y="330" as="sourcePoint" />
            <mxPoint x="684" y="280" as="targetPoint" />
          </mxGeometry>
        </mxCell>
        <mxCell id="QPQLbKnhLEbj0gce8Fij-24" value="" style="endArrow=classic;html=1;rounded=0;exitX=0;exitY=0.274;exitDx=0;exitDy=0;exitPerimeter=0;entryX=0;entryY=0.25;entryDx=0;entryDy=0;" edge="1" parent="1" target="QPQLbKnhLEbj0gce8Fij-20">
          <mxGeometry width="50" height="50" relative="1" as="geometry">
            <mxPoint x="713" y="319.9" as="sourcePoint" />
            <mxPoint x="732" y="319.9" as="targetPoint" />
          </mxGeometry>
        </mxCell>
        <mxCell id="QPQLbKnhLEbj0gce8Fij-25" value="" style="endArrow=classic;html=1;rounded=0;exitX=1;exitY=0.5;exitDx=0;exitDy=0;entryX=0;entryY=0.75;entryDx=0;entryDy=0;" edge="1" parent="1" source="QPQLbKnhLEbj0gce8Fij-19" target="QPQLbKnhLEbj0gce8Fij-20">
          <mxGeometry width="50" height="50" relative="1" as="geometry">
            <mxPoint x="723" y="329.9" as="sourcePoint" />
            <mxPoint x="759" y="337" as="targetPoint" />
          </mxGeometry>
        </mxCell>
        <mxCell id="QPQLbKnhLEbj0gce8Fij-26" value="" style="endArrow=classic;html=1;rounded=0;exitX=1;exitY=0.5;exitDx=0;exitDy=0;entryX=1;entryY=0.5;entryDx=0;entryDy=0;" edge="1" parent="1" source="QPQLbKnhLEbj0gce8Fij-20" target="QPQLbKnhLEbj0gce8Fij-3">
          <mxGeometry width="50" height="50" relative="1" as="geometry">
            <mxPoint x="818" y="344" as="sourcePoint" />
            <mxPoint x="854" y="351.1" as="targetPoint" />
          </mxGeometry>
        </mxCell>
        <mxCell id="QPQLbKnhLEbj0gce8Fij-27" value="G" style="rounded=0;whiteSpace=wrap;html=1;" vertex="1" parent="1">
          <mxGeometry x="401" y="425" width="60" height="50" as="geometry" />
        </mxCell>
        <mxCell id="QPQLbKnhLEbj0gce8Fij-34" value="F" style="rounded=0;whiteSpace=wrap;html=1;fillColor=#fff2cc;strokeColor=#d6b656;" vertex="1" parent="1">
          <mxGeometry x="483" y="429.25" width="40" height="41.5" as="geometry" />
        </mxCell>
        <mxCell id="QPQLbKnhLEbj0gce8Fij-36" value="" style="endArrow=classic;html=1;rounded=0;exitX=1;exitY=0.5;exitDx=0;exitDy=0;entryX=0;entryY=0.5;entryDx=0;entryDy=0;" edge="1" parent="1" source="QPQLbKnhLEbj0gce8Fij-27" target="QPQLbKnhLEbj0gce8Fij-34">
          <mxGeometry width="50" height="50" relative="1" as="geometry">
            <mxPoint x="470" y="450" as="sourcePoint" />
            <mxPoint x="520" y="400" as="targetPoint" />
          </mxGeometry>
        </mxCell>
        <mxCell id="QPQLbKnhLEbj0gce8Fij-37" value="" style="endArrow=classic;html=1;rounded=0;entryX=1;entryY=0.5;entryDx=0;entryDy=0;exitX=1;exitY=0.5;exitDx=0;exitDy=0;" edge="1" parent="1" source="QPQLbKnhLEbj0gce8Fij-34" target="QPQLbKnhLEbj0gce8Fij-2">
          <mxGeometry width="50" height="50" relative="1" as="geometry">
            <mxPoint x="530" y="450" as="sourcePoint" />
            <mxPoint x="580" y="400" as="targetPoint" />
          </mxGeometry>
        </mxCell>
        <mxCell id="QPQLbKnhLEbj0gce8Fij-39" value="D: Discriminador&lt;div&gt;G: Generador&lt;/div&gt;&lt;div&gt;R: Imagen Real&lt;/div&gt;&lt;div&gt;F: Imagen Falsa&lt;/div&gt;&lt;div&gt;&lt;br&gt;&lt;/div&gt;" style="text;html=1;align=left;verticalAlign=middle;whiteSpace=wrap;rounded=0;" vertex="1" parent="1">
          <mxGeometry x="701" y="430" width="171" height="65" as="geometry" />
        </mxCell>
      </root>
    </mxGraphModel>
  </diagram>
</mxfile>
